<?xml version="1.0" standalone="no"?>
<!DOCTYPE svg PUBLIC "-//W3C//DTD SVG 20010904//EN"
 "http://www.w3.org/TR/2001/REC-SVG-20010904/DTD/svg10.dtd">
<svg version="1.0" xmlns="http://www.w3.org/2000/svg"
 width="300.000000pt" height="300.000000pt" viewBox="0 0 300.000000 300.000000"
 preserveAspectRatio="xMidYMid meet">
<metadata>
Created by potrace 1.11, written by Peter Selinger 2001-2013
</metadata>
<g transform="translate(0.000000,300.000000) scale(0.100000,-0.100000)"
fill="#000000" stroke="none">
<path d="M1715 2892 c-3 -3 -5 -16 -5 -28 0 -23 7 -27 65 -36 11 -2 19 -10 18
-18 -1 -8 -18 -100 -38 -204 -20 -104 -34 -195 -31 -202 3 -8 16 -14 28 -14
25 0 21 -11 90 300 25 117 27 122 46 116 62 -18 70 -18 77 4 4 12 3 26 -2 30
-11 11 -241 59 -248 52z"/>
<path d="M1272 2881 c-11 -6 -9 -28 7 -117 12 -60 24 -120 27 -134 4 -16 -7
-6 -31 30 -43 63 -136 190 -139 190 -12 0 -66 -23 -66 -28 0 -24 156 -462 164
-462 6 0 18 4 26 10 12 8 9 28 -24 142 -21 72 -40 139 -43 148 -6 19 44 -58
81 -125 62 -110 77 -133 95 -138 43 -11 44 2 17 189 -14 99 -30 206 -36 239
-5 33 -10 61 -10 63 0 6 -56 1 -68 -7z"/>
<path d="M2186 2485 c-70 -112 -128 -207 -128 -212 1 -4 9 -14 20 -21 17 -11
24 -5 77 68 31 45 59 79 61 77 2 -2 -12 -48 -31 -103 l-35 -99 22 -18 c11 -10
23 -16 25 -14 2 2 23 53 47 113 41 103 45 109 70 106 59 -6 146 81 146 146 0
45 -23 77 -90 122 l-56 38 -128 -203z m189 85 c33 -37 -15 -122 -69 -122 -49
0 -50 15 -5 81 24 33 46 61 49 61 4 0 15 -9 25 -20z"/>
<path d="M627 2589 c-42 -33 -77 -64 -77 -68 0 -7 253 -306 301 -356 18 -19
19 -19 46 7 16 14 40 33 56 43 30 19 33 33 14 59 -13 18 -16 17 -56 -9 -41
-28 -42 -28 -56 -8 -8 11 -30 39 -50 63 l-36 43 41 29 c38 29 39 30 24 53
l-16 25 -42 -30 -43 -29 -46 56 c-26 30 -47 58 -47 62 0 3 23 21 50 40 42 28
48 36 40 52 -6 10 -14 20 -18 23 -4 2 -42 -22 -85 -55z"/>
<path d="M1357 2373 c-16 -4 -15 -6 5 -23 20 -17 20 -19 6 -20 -32 0 -19 -15
15 -16 27 0 32 3 34 24 0 15 -2 20 -7 13 -5 -9 -9 -6 -13 8 -5 21 -8 22 -40
14z"/>
<path d="M1495 2370 c-3 -5 -1 -10 4 -10 6 0 11 5 11 10 0 6 -2 10 -4 10 -3 0
-8 -4 -11 -10z"/>
<path d="M1280 2359 c0 -5 5 -7 10 -4 6 3 10 8 10 11 0 2 -4 4 -10 4 -5 0 -10
-5 -10 -11z"/>
<path d="M1456 2328 c3 -5 10 -6 15 -3 13 9 11 12 -6 12 -8 0 -12 -4 -9 -9z"/>
<path d="M258 2203 c-42 -49 -52 -117 -24 -170 48 -93 283 -202 371 -173 38
13 75 52 75 81 0 10 -10 25 -22 33 -20 14 -23 14 -40 -14 -17 -29 -34 -35 -83
-31 -37 4 -162 69 -204 106 -33 30 -41 44 -41 73 0 23 8 44 23 60 22 23 22 24
3 38 -26 18 -40 18 -58 -3z"/>
<path d="M2680 2157 c-47 -29 -138 -86 -202 -126 l-118 -72 31 -62 c17 -34 33
-63 34 -65 1 -1 14 3 28 9 l26 12 -19 38 c-11 21 -20 42 -20 46 0 9 123 73
139 73 4 0 16 -18 26 -40 10 -22 19 -40 21 -40 2 0 14 5 28 11 l25 12 -19 38
c-11 21 -20 43 -20 48 0 10 110 71 128 71 5 0 19 -22 32 -50 24 -51 54 -67 66
-35 6 15 -74 176 -91 182 -6 1 -48 -21 -95 -50z"/>
<path d="M1440 2185 c0 -8 -4 -16 -10 -16 -5 -1 -15 -2 -22 -3 -6 0 -13 -7
-16 -15 -3 -8 0 -11 6 -7 15 9 42 -4 36 -17 -2 -7 6 -18 18 -26 20 -12 21 -12
11 0 -14 17 -1 45 16 35 7 -5 9 -1 5 9 -4 9 -13 14 -21 10 -12 -4 -14 1 -11
20 3 14 1 25 -3 25 -5 0 -9 -7 -9 -15z"/>
<path d="M1443 2056 c-13 -12 -23 -28 -23 -36 0 -11 3 -11 12 -2 18 18 27 14
20 -10 -4 -17 -2 -20 13 -14 15 5 16 4 6 -8 -9 -11 -9 -16 0 -22 7 -4 15 -2
17 4 2 7 9 9 15 5 6 -4 8 0 4 10 -4 10 1 21 11 27 12 8 13 13 5 16 -9 4 -10
11 -4 22 7 14 4 17 -14 17 -13 0 -21 -3 -19 -6 2 -4 -5 -9 -17 -12 -17 -5 -18
-3 -8 9 19 23 6 23 -18 0z"/>
<path d="M1254 2040 c0 -25 21 -33 37 -14 13 16 12 19 -16 28 -16 5 -21 1 -21
-14z"/>
<path d="M1707 1993 c15 -23 18 -24 21 -9 2 10 -2 22 -10 27 -24 16 -29 9 -11
-18z"/>
<path d="M1655 2000 c-3 -5 -1 -10 4 -10 6 0 11 5 11 10 0 6 -2 10 -4 10 -3 0
-8 -4 -11 -10z"/>
<path d="M1173 1973 c-9 -7 -13 -13 -9 -13 4 0 0 -7 -8 -16 -9 -8 -20 -13 -26
-9 -5 3 -7 0 -4 -9 4 -10 -2 -16 -18 -18 -13 -2 -22 -9 -20 -16 1 -8 -2 -11
-8 -7 -6 3 -18 -7 -28 -24 -18 -33 -32 -37 -64 -20 -26 14 -68 3 -68 -17 0
-14 3 -14 15 -4 10 9 15 9 16 1 3 -26 4 -30 12 -37 4 -4 7 0 7 8 0 15 19 28
40 28 15 0 21 -39 9 -61 -10 -20 -9 -21 9 -17 16 5 18 2 14 -16 -3 -11 -10
-24 -16 -28 -7 -5 -3 -8 9 -8 11 0 16 -4 10 -8 -5 -4 -11 -18 -12 -32 -1 -14
0 -19 3 -12 3 6 11 9 17 5 7 -4 17 -8 22 -8 6 -1 9 -6 8 -13 -6 -27 47 9 60
41 3 9 11 17 17 17 5 0 10 6 10 14 0 8 9 17 19 21 11 3 25 13 32 21 10 13 10
17 -2 24 -11 8 -11 12 6 24 23 17 39 21 30 7 -3 -5 -1 -12 5 -16 12 -8 13 27
1 41 -16 16 -24 74 -11 74 7 0 10 6 7 14 -3 8 0 20 8 26 13 11 14 34 2 46 -4
4 -7 2 -7 -4 0 -7 -7 -12 -16 -12 -9 0 -14 6 -11 13 3 7 -4 12 -19 12 -13 0
-31 -6 -41 -12z m43 -60 c-11 -11 -19 6 -11 24 8 17 8 17 12 0 3 -10 2 -21 -1
-24z m-16 -38 c10 -13 9 -15 -11 -14 -13 0 -18 3 -11 6 6 2 10 9 6 14 -9 15 2
10 16 -6z m10 -53 c-19 -2 -39 -11 -46 -20 -10 -14 -15 -15 -26 -4 -10 10 -9
14 10 18 12 4 22 10 22 14 0 13 44 17 59 5 11 -8 7 -11 -19 -13z m-129 -31
c-6 -10 -7 -21 -4 -25 3 -3 1 -6 -6 -6 -14 0 -11 31 4 42 15 12 17 10 6 -11z
m74 -91 c3 -5 1 -10 -4 -10 -6 0 -11 5 -11 10 0 6 2 10 4 10 3 0 8 -4 11 -10z"/>
<path d="M1370 1970 c0 -16 15 -18 39 -6 23 13 23 13 -8 14 -17 0 -31 -3 -31
-8z"/>
<path d="M738 1951 c-8 -9 -19 -28 -25 -43 -10 -21 -9 -29 5 -41 18 -17 65
-13 80 7 12 15 22 57 12 51 -4 -3 -10 3 -13 14 -6 25 -43 33 -59 12z m48 -68
c-11 -11 -17 4 -9 23 7 18 8 18 11 1 2 -10 1 -21 -2 -24z"/>
<path d="M1735 1940 c-11 -13 -31 -20 -53 -20 -27 0 -42 -8 -71 -38 -46 -48
-70 -79 -65 -84 2 -2 -2 -51 -9 -108 l-12 -105 -44 -3 c-24 -2 -56 1 -71 6
-35 13 -55 0 -80 -48 -24 -46 -26 -117 -5 -146 8 -12 12 -24 9 -27 -3 -3 3 -4
13 -4 15 2 19 -7 21 -50 2 -32 -1 -53 -7 -53 -6 0 -11 16 -11 35 0 24 -6 37
-20 45 -21 11 -25 4 -20 -29 1 -8 -4 -18 -12 -22 -7 -5 -13 -12 -14 -16 0 -4
-6 -21 -12 -36 -15 -35 -15 -37 -1 -37 5 0 8 4 5 9 -3 5 1 12 10 15 19 7 41
-3 26 -13 -7 -4 -8 -12 -2 -21 8 -13 10 -12 10 3 0 9 7 17 15 17 8 0 14 3 14
8 -5 31 17 46 23 15 3 -15 4 -15 20 0 9 9 18 22 20 29 4 10 8 10 22 -1 9 -8
14 -21 11 -31 -7 -21 17 -42 42 -38 15 3 18 -3 16 -37 -3 -51 -28 -118 -52
-139 -10 -9 -31 -18 -47 -19 -25 -2 -29 1 -26 23 3 24 2 24 -13 6 -11 -14 -12
-23 -4 -33 31 -36 127 7 175 79 l32 47 21 -25 c27 -31 39 -30 54 4 12 29 26
42 42 42 6 0 4 -4 -4 -9 -10 -6 -5 -12 18 -24 35 -17 38 -16 15 7 -13 14 -13
16 -1 16 25 0 25 -35 2 -63 -13 -14 -26 -23 -29 -20 -3 4 -6 -1 -6 -10 0 -9
-7 -20 -17 -25 -28 -16 -8 -44 29 -39 34 3 49 33 16 31 -10 -1 -18 2 -18 7 0
13 19 21 32 13 22 -14 78 -12 78 1 0 8 6 15 13 18 17 6 47 -11 47 -26 0 -20
20 -35 40 -30 23 6 34 33 20 47 -15 15 -12 23 13 30 19 6 10 13 -57 46 -60 30
-83 37 -93 28 -7 -6 -13 -7 -13 -2 0 4 -6 -1 -14 -11 -13 -18 -14 -15 -11 30
2 28 7 48 12 45 4 -3 7 -8 6 -11 -5 -14 46 -16 51 -3 3 8 2 13 -2 13 -32 -5
-41 10 -19 33 8 7 14 21 14 31 0 14 -6 18 -24 14 -13 -2 -23 1 -23 7 0 7 -3 7
-8 -1 -17 -26 -34 4 -29 51 3 25 1 44 -3 41 -4 -3 -16 7 -25 22 -17 25 -17 26
4 20 27 -7 79 42 109 104 27 56 27 59 2 59 -11 0 -20 -4 -20 -10 0 -5 -6 -7
-13 -4 -8 3 -20 -2 -27 -11 -14 -16 -55 -21 -45 -5 3 6 0 10 -8 10 -19 0 -68
-25 -62 -32 3 -2 -4 -22 -15 -44 l-19 -39 -1 61 0 62 40 16 c22 9 50 16 62 16
17 0 19 3 10 12 -9 9 -25 9 -62 2 -34 -7 -50 -7 -53 0 -10 28 13 188 33 225
38 75 91 79 71 5 -6 -22 -11 -53 -11 -71 l0 -32 41 42 c46 48 59 74 59 122 0
45 -29 63 -55 35z m-275 -417 c0 -10 5 -11 18 -4 15 8 18 6 17 -7 0 -10 -4
-23 -9 -30 -10 -17 -36 9 -36 37 0 11 -5 23 -11 27 -20 12 -30 -13 -30 -69 0
-42 -5 -59 -20 -72 -18 -17 -19 -17 -27 6 -12 31 -4 59 17 59 13 0 13 2 2 9
-16 10 0 47 33 73 20 16 22 16 34 1 6 -9 12 -23 12 -30z m70 -77 c0 -61 -1
-64 -27 -69 -16 -3 -37 -9 -48 -13 -19 -8 -19 -7 -2 10 9 9 17 21 17 26 0 11
-30 21 -41 14 -5 -3 -9 0 -9 5 0 6 11 11 25 11 29 0 75 40 75 65 0 8 2 15 5
15 3 0 5 -29 5 -64z m180 -96 c0 -5 -4 -10 -10 -10 -5 0 -10 5 -10 10 0 6 5
10 10 10 6 0 10 -4 10 -10z m0 -160 c0 -5 -4 -10 -10 -10 -5 0 -10 5 -10 10 0
6 5 10 10 10 6 0 10 -4 10 -10z m30 -40 c0 -4 -8 -7 -17 -5 -10 2 -20 4 -23 4
-3 1 2 5 10 10 15 10 30 6 30 -9z m11 -104 c5 3 9 1 9 -4 0 -16 -28 -22 -33
-7 -3 7 -3 16 1 20 4 3 8 1 10 -4 2 -6 8 -9 13 -5z"/>
<path d="M1414 1924 c-2 -18 2 -24 15 -21 9 2 15 9 13 16 -2 9 3 11 15 7 12
-5 14 -4 8 2 -5 5 -19 12 -30 16 -16 5 -20 1 -21 -20z"/>
<path d="M866 1898 c-22 -32 -21 -53 2 -30 9 9 18 25 18 35 0 22 -2 22 -20 -5z"/>
<path d="M2029 1912 c6 -2 9 -8 6 -12 -3 -5 8 -4 25 1 39 14 38 17 -6 16 -20
-1 -32 -3 -25 -5z"/>
<path d="M2210 1901 c0 -5 -18 -8 -39 -6 -38 4 -39 3 -37 -28 2 -51 66 -97 66
-47 0 17 5 19 25 14 22 -5 25 -3 25 23 0 17 -8 33 -20 41 -11 7 -20 8 -20 3z"/>
<path d="M2070 1880 c-8 -5 -18 -6 -23 -3 -5 3 -3 -3 3 -14 16 -25 50 -28 50
-3 0 24 -12 31 -30 20z"/>
<path d="M1460 1835 c0 -17 -26 -20 -35 -5 -4 6 -11 8 -16 4 -5 -3 -7 -10 -4
-15 3 -5 -1 -6 -9 -3 -11 4 -16 0 -16 -10 0 -18 25 -22 36 -4 5 8 10 7 18 -4
16 -21 58 -16 67 9 6 16 2 23 -17 32 -19 9 -24 8 -24 -4z"/>
<path d="M1289 1811 c6 -10 8 -21 4 -24 -3 -4 7 -11 22 -17 27 -10 27 -11 9
-25 -19 -15 -19 -15 1 -33 12 -9 24 -25 28 -34 11 -29 51 -22 63 10 10 26 9
28 -13 30 -14 1 -21 -2 -18 -8 3 -6 2 -10 -4 -10 -6 0 -15 9 -21 19 -13 25
-13 32 2 29 15 -4 18 22 5 40 -14 18 -27 15 -20 -5 3 -12 0 -10 -11 5 -10 12
-22 20 -27 17 -5 -4 -9 1 -9 9 0 9 -5 16 -10 16 -7 0 -7 -6 -1 -19z"/>
<path d="M660 1810 c0 -5 5 -10 10 -10 6 0 10 5 10 10 0 6 -4 10 -10 10 -5 0
-10 -4 -10 -10z"/>
<path d="M2211 1798 c-10 -25 1 -44 18 -34 14 9 14 56 1 56 -6 0 -15 -10 -19
-22z"/>
<path d="M1006 1785 c4 -8 8 -15 10 -15 2 0 4 7 4 15 0 8 -4 15 -10 15 -5 0
-7 -7 -4 -15z"/>
<path d="M662 1759 c-15 -24 -13 -32 7 -20 7 5 11 16 9 25 -2 14 -5 13 -16 -5z"/>
<path d="M1256 1742 c-3 -5 1 -9 9 -9 8 0 12 4 9 9 -3 4 -7 8 -9 8 -2 0 -6 -4
-9 -8z"/>
<path d="M620 1696 c0 -9 2 -16 4 -16 2 0 11 -3 19 -6 9 -3 16 3 20 15 3 12 1
21 -4 21 -5 0 -9 -5 -9 -11 0 -8 -5 -8 -15 1 -12 10 -15 10 -15 -4z"/>
<path d="M1262 1698 c-8 -8 -9 -15 -1 -25 16 -19 29 -16 29 6 0 25 -13 34 -28
19z"/>
<path d="M1260 1581 c0 -6 -9 -8 -20 -6 -11 2 -18 0 -15 -5 3 -5 -2 -13 -11
-18 -9 -5 -15 -12 -15 -15 3 -22 -1 -28 -14 -23 -9 3 -15 0 -15 -9 0 -18 -12
-19 -28 -3 -9 9 -12 9 -12 0 0 -7 -7 -12 -15 -12 -9 0 -15 -10 -15 -26 0 -14
-5 -35 -11 -47 -8 -14 -9 -22 -1 -25 14 -4 -5 -73 -25 -89 -14 -11 -14 -15 -2
-30 12 -15 12 -16 -2 -11 -17 7 -48 -36 -36 -48 3 -4 2 -15 -3 -24 -13 -24 16
-52 30 -30 5 8 7 17 4 21 -2 4 5 9 15 12 21 5 38 -19 18 -26 -7 -2 -1 -16 17
-38 32 -38 56 -55 56 -39 0 5 7 10 15 10 8 0 15 5 15 10 0 6 12 10 26 10 14 0
23 4 19 10 -9 15 8 12 33 -6 26 -18 63 -11 44 8 -7 7 -12 22 -12 35 0 26 -12
30 -30 8 -7 -8 -25 -15 -41 -15 -21 0 -29 -5 -29 -17 0 -15 -2 -16 -10 -3 -14
21 -12 30 5 30 8 0 15 4 15 10 0 5 -8 6 -17 3 -13 -5 -15 -2 -10 11 4 9 3 15
-2 12 -5 -3 -11 1 -15 9 -3 8 0 15 6 15 7 0 6 5 -2 15 -10 12 -10 18 0 30 7 9
14 40 15 69 1 29 10 64 19 78 9 14 15 32 14 39 -2 8 3 13 11 11 19 -4 43 19
37 35 -3 8 1 13 11 13 13 0 14 3 5 12 -8 8 -15 8 -26 -1 -8 -7 -17 -8 -19 -4
-8 12 5 28 23 28 8 0 16 8 18 18 2 9 -1 17 -7 17 -6 0 -11 -4 -11 -9z m-160
-306 c0 -12 -19 -12 -23 0 -4 9 -1 12 9 8 7 -3 14 -7 14 -8z"/>
<path d="M692 1495 c5 -26 -6 -35 -15 -12 -3 7 -6 5 -6 -5 -1 -10 6 -18 15
-18 8 0 13 -4 10 -9 -12 -19 6 -69 28 -76 11 -4 24 -7 29 -6 4 1 7 -3 7 -9 0
-17 37 -11 44 6 7 18 -18 64 -34 64 -14 0 -12 27 3 34 6 4 2 4 -10 2 -13 -2
-26 0 -29 5 -3 5 0 9 5 9 6 0 11 5 11 11 0 5 -4 8 -9 4 -5 -3 -16 2 -24 10
-22 22 -30 19 -25 -10z"/>
<path d="M1264 1386 c1 -11 7 -21 15 -24 9 -3 12 0 8 10 -3 9 -1 20 4 25 5 5
1 9 -10 9 -12 0 -18 -7 -17 -20z"/>
<path d="M2583 1398 c-28 -14 -29 -24 -2 -31 16 -4 18 -3 8 9 -9 11 -8 14 5
14 9 0 16 5 16 10 0 12 1 12 -27 -2z"/>
<path d="M1331 1173 c-1 -12 -7 -24 -13 -26 -10 -4 -10 -6 0 -6 15 -1 26 23
19 41 -3 7 -6 3 -6 -9z"/>
<path d="M1858 1143 c7 -3 16 -2 19 1 4 3 -2 6 -13 5 -11 0 -14 -3 -6 -6z"/>
<path d="M1032 1121 c7 -11 16 -17 20 -15 4 3 8 0 8 -5 0 -6 5 -11 10 -11 6 0
3 11 -6 25 -20 31 -51 36 -32 6z"/>
<path d="M1660 1111 c0 -5 5 -13 10 -16 6 -3 10 -2 10 4 0 5 -4 13 -10 16 -5
3 -10 2 -10 -4z"/>
<path d="M675 961 c-68 -42 -86 -72 -99 -171 -14 -102 -33 -132 -82 -132 -31
0 -64 33 -64 63 0 25 -12 24 -37 -3 -19 -21 -20 -26 -8 -54 17 -40 67 -76 110
-77 40 -1 106 42 125 81 7 15 16 65 21 111 6 66 12 88 30 108 28 29 76 28 93
-2 6 -11 12 -22 13 -24 6 -10 43 34 43 50 0 25 -57 69 -88 69 -15 0 -40 -8
-57 -19z"/>
<path d="M2237 926 c-20 -25 -37 -49 -37 -53 0 -5 76 -85 170 -178 146 -146
172 -167 183 -155 7 8 39 45 71 82 l58 68 -27 12 c-23 10 -29 10 -39 -3 -6 -8
-23 -30 -37 -48 l-25 -32 -63 58 -62 58 30 36 30 36 -20 19 c-21 19 -21 18
-51 -19 l-30 -37 -59 51 -59 51 26 34 c22 28 24 37 14 49 -20 24 -33 18 -73
-29z"/>
<path d="M1370 910 c-13 -8 -12 -10 3 -10 9 0 17 5 17 10 0 12 -1 12 -20 0z"/>
<path d="M1503 898 c-4 -7 -1 -8 7 -3 8 5 11 3 8 -6 -3 -8 -10 -15 -16 -15
-23 -3 -24 -4 -12 -19 9 -11 9 -15 1 -15 -7 0 -9 -5 -6 -10 3 -6 17 -8 31 -6
13 3 30 -1 37 -8 6 -7 18 -11 25 -8 6 2 12 -2 12 -8 0 -9 3 -10 13 -1 8 6 18
7 23 3 4 -4 2 2 -6 12 -14 18 -14 19 8 7 19 -10 22 -9 22 9 0 12 5 18 10 15
19 -12 31 6 14 22 -13 14 -17 14 -25 2 -5 -8 -9 -9 -9 -3 0 10 -36 23 -107 37
-13 3 -26 0 -30 -5z"/>
<path d="M1366 868 c3 -5 10 -6 15 -3 13 9 11 12 -6 12 -8 0 -12 -4 -9 -9z"/>
<path d="M1450 856 c0 -8 4 -17 9 -20 5 -4 7 3 4 14 -6 23 -13 26 -13 6z"/>
<path d="M1036 717 c-8 -12 -53 -92 -101 -177 -48 -85 -96 -170 -106 -188 -11
-19 -17 -37 -15 -40 2 -4 41 -25 86 -47 79 -39 82 -39 96 -21 8 11 14 23 14
27 0 4 -25 17 -55 29 -30 12 -55 25 -55 28 0 4 67 129 75 140 1 1 19 -5 40
-13 43 -19 60 -15 68 14 4 16 -3 23 -39 37 l-43 16 35 69 c19 38 36 69 39 69
2 0 20 -8 40 -17 37 -17 51 -13 57 19 2 13 -14 26 -60 47 l-62 30 -14 -22z"/>
<path d="M1934 696 c-57 -25 -67 -112 -23 -186 14 -23 41 -41 97 -67 42 -19
85 -45 94 -57 18 -22 23 -62 10 -83 -11 -18 -62 -34 -84 -27 -17 5 -19 3 -13
-18 15 -49 54 -56 120 -19 17 9 38 34 49 55 16 32 17 44 7 76 -15 50 -72 98
-151 129 -61 23 -100 62 -100 102 0 20 31 49 53 49 21 0 21 9 1 38 -18 26 -19
26 -60 8z"/>
<path d="M1426 598 c-6 -19 -45 -321 -52 -406 l-7 -73 34 3 34 3 7 95 c3 52
10 120 14 150 l7 55 9 -40 c4 -22 27 -93 51 -157 l42 -118 34 0 34 0 -6 167
c-4 93 -10 205 -13 251 -7 82 -7 83 -33 80 l-26 -3 1 -150 c1 -169 -1 -168
-49 25 -28 111 -35 125 -55 128 -12 2 -24 -3 -26 -10z"/>
</g>
</svg>
