<?xml version="1.0" standalone="no"?>
<!DOCTYPE svg PUBLIC "-//W3C//DTD SVG 20010904//EN"
 "http://www.w3.org/TR/2001/REC-SVG-20010904/DTD/svg10.dtd">
<svg version="1.0" xmlns="http://www.w3.org/2000/svg"
 width="300.000000pt" height="300.000000pt" viewBox="0 0 300.000000 300.000000"
 preserveAspectRatio="xMidYMid meet">
<metadata>
Created by potrace 1.11, written by Peter Selinger 2001-2013
</metadata>
<g transform="translate(0.000000,300.000000) scale(0.100000,-0.100000)"
fill="#000000" stroke="none">
<path d="M1389 2906 c-3 -3 -40 -8 -84 -11 -43 -4 -86 -8 -95 -10 -197 -41
-246 -56 -351 -110 -174 -89 -354 -240 -490 -411 -156 -196 -253 -457 -266
-714 l-6 -105 626 3 625 3 -10 -33 -10 -33 -381 -4 c-441 -4 -829 -8 -838 -10
-18 -3 22 -294 51 -371 6 -14 11 -35 13 -47 2 -12 6 -26 10 -29 4 -4 7 -14 7
-22 0 -33 112 -243 174 -327 118 -159 313 -332 479 -424 57 -32 233 -93 333
-117 102 -23 243 -37 261 -25 6 3 10 49 10 101 0 118 9 279 17 287 3 3 8 -8
12 -23 3 -16 17 -61 30 -101 19 -56 24 -92 24 -172 l0 -100 108 4 c59 2 118 6
132 9 14 3 50 11 80 17 133 26 265 83 400 172 128 85 169 118 269 216 223 217
383 575 384 858 1 57 -2 105 -5 108 -5 6 -683 6 -1108 1 -96 -1 -181 0 -187 2
-7 2 -13 18 -13 36 l0 31 523 2 c287 1 581 2 653 2 130 1 131 1 128 24 -2 12
-5 67 -8 122 -3 55 -7 109 -9 120 -3 11 -8 40 -12 65 -25 153 -164 420 -292
559 -113 124 -272 252 -381 309 -91 47 -252 115 -252 106 0 -2 -12 1 -27 7
-60 23 -124 31 -265 34 l-148 4 4 -422 c4 -375 7 -851 6 -899 0 -13 -8 -18
-30 -18 -16 0 -30 -4 -30 -10 0 -12 45 -24 64 -17 11 5 13 -21 10 -151 -2 -86
-6 -168 -9 -182 -14 -73 -19 -87 -33 -115 -39 -77 -42 -68 -42 142 l0 198 32
15 c17 8 35 26 40 40 l9 25 -26 -27 c-39 -42 -58 -37 -51 12 4 31 2 40 -9 40
-8 0 -14 -3 -14 -7 5 -31 -3 -49 -21 -49 -11 0 -20 5 -20 11 0 17 30 55 44 55
10 0 12 23 10 92 -1 51 -5 291 -9 533 -9 645 -11 715 -22 726 -5 5 -11 7 -14
5z m139 -2121 c1 -168 0 -305 -2 -305 -3 0 -15 45 -27 100 -18 76 -27 100 -39
100 -14 0 -16 21 -17 173 l-1 172 41 32 c23 17 42 32 42 32 0 1 1 -136 3 -304z"/>
</g>
</svg>
